G04*
G04 #@! TF.GenerationSoftware,Altium Limited,Altium Designer,21.8.1 (53)*
G04*
G04 Layer_Physical_Order=2*
G04 Layer_Color=1930808*
%FSLAX44Y44*%
%MOMM*%
G71*
G04*
G04 #@! TF.SameCoordinates,07770754-C78C-4D38-BC67-4B072819B11E*
G04*
G04*
G04 #@! TF.FilePolarity,Positive*
G04*
G01*
G75*
%ADD49C,0.5000*%
%ADD50C,0.3000*%
%ADD52C,1.3000*%
G04:AMPARAMS|DCode=53|XSize=1.3mm|YSize=1.3mm|CornerRadius=0.325mm|HoleSize=0mm|Usage=FLASHONLY|Rotation=0.000|XOffset=0mm|YOffset=0mm|HoleType=Round|Shape=RoundedRectangle|*
%AMROUNDEDRECTD53*
21,1,1.3000,0.6500,0,0,0.0*
21,1,0.6500,1.3000,0,0,0.0*
1,1,0.6500,0.3250,-0.3250*
1,1,0.6500,-0.3250,-0.3250*
1,1,0.6500,-0.3250,0.3250*
1,1,0.6500,0.3250,0.3250*
%
%ADD53ROUNDEDRECTD53*%
%ADD54C,1.6000*%
%ADD55C,3.0000*%
%ADD56R,1.3000X1.3000*%
%ADD57R,1.6500X1.6500*%
%ADD58C,1.6500*%
%ADD59C,0.7000*%
G36*
X858000Y924216D02*
X856827Y923730D01*
X856754Y923802D01*
X854246Y925250D01*
X851448Y926000D01*
X848552D01*
X845754Y925250D01*
X843246Y923802D01*
X841198Y921754D01*
X839750Y919246D01*
X839000Y916448D01*
Y913552D01*
X839750Y910754D01*
X841198Y908246D01*
X843246Y906198D01*
X845051Y905156D01*
Y903689D01*
X843860Y903002D01*
X841998Y901140D01*
X840682Y898860D01*
X840049Y896500D01*
X850000D01*
Y895000D01*
X851500D01*
Y885049D01*
X853860Y885682D01*
X856140Y886998D01*
X856827Y887685D01*
X858000Y887199D01*
Y808157D01*
X856730Y808032D01*
X856347Y809959D01*
X855065Y813053D01*
X853205Y815837D01*
X850837Y818205D01*
X848053Y820065D01*
X844959Y821347D01*
X841674Y822000D01*
X841500D01*
Y805000D01*
X840000D01*
Y803500D01*
X823000D01*
Y803326D01*
X823653Y800041D01*
X824935Y796947D01*
X826795Y794163D01*
X829163Y791795D01*
X831947Y789935D01*
X833552Y789270D01*
X833300Y788000D01*
X629243D01*
X628857Y789270D01*
X631474Y791019D01*
X633982Y793526D01*
X635951Y796474D01*
X637308Y799750D01*
X638000Y803227D01*
Y806773D01*
X637308Y810250D01*
X635951Y813526D01*
X633982Y816474D01*
X631474Y818981D01*
X628526Y820951D01*
X625250Y822308D01*
X621773Y823000D01*
X618227D01*
X614750Y822308D01*
X611474Y820951D01*
X608526Y818981D01*
X606018Y816474D01*
X605295Y815391D01*
X602539D01*
X598965Y818965D01*
X583931Y834000D01*
X643000Y893070D01*
X658392Y877677D01*
Y839287D01*
X657943Y838509D01*
X657500Y836856D01*
Y835144D01*
X657943Y833491D01*
X658799Y832009D01*
X660009Y830799D01*
X661491Y829943D01*
X663144Y829500D01*
X664856D01*
X666509Y829943D01*
X667991Y830799D01*
X669201Y832009D01*
X670057Y833491D01*
X670500Y835144D01*
Y836856D01*
X670057Y838509D01*
X669608Y839287D01*
Y880000D01*
X669181Y882146D01*
X667965Y883965D01*
X650930Y901000D01*
X689323Y939392D01*
X703713D01*
X704491Y938943D01*
X706144Y938500D01*
X707856D01*
X709509Y938943D01*
X710991Y939799D01*
X712201Y941009D01*
X713057Y942491D01*
X713500Y944144D01*
Y945856D01*
X713057Y947509D01*
X712201Y948991D01*
X710991Y950201D01*
X709509Y951057D01*
X707856Y951500D01*
X706144D01*
X704491Y951057D01*
X703713Y950608D01*
X687000D01*
X684854Y950181D01*
X683035Y948965D01*
X643884Y909814D01*
X642102Y909829D01*
X609290Y942641D01*
X609057Y943509D01*
X608201Y944991D01*
X607051Y946142D01*
X607068Y946413D01*
X607434Y947412D01*
X611100D01*
X628500Y930011D01*
Y929144D01*
X628943Y927491D01*
X629799Y926009D01*
X631009Y924799D01*
X632491Y923943D01*
X634144Y923500D01*
X635856D01*
X637509Y923943D01*
X638991Y924799D01*
X640201Y926009D01*
X641057Y927491D01*
X641500Y929144D01*
Y930856D01*
X641057Y932509D01*
X640201Y933991D01*
X638991Y935201D01*
X637509Y936057D01*
X635856Y936500D01*
X634989D01*
X616244Y955244D01*
X614756Y956239D01*
X613000Y956588D01*
X589901D01*
X589500Y956989D01*
Y957856D01*
X589057Y959509D01*
X588201Y960991D01*
X586991Y962201D01*
X585509Y963057D01*
X583856Y963500D01*
X582144D01*
X580491Y963057D01*
X579009Y962201D01*
X577799Y960991D01*
X576943Y959509D01*
X576500Y957856D01*
Y956144D01*
X576943Y954491D01*
X577799Y953009D01*
X579009Y951799D01*
X580491Y950943D01*
X582144Y950500D01*
X583011D01*
X584756Y948756D01*
X586244Y947761D01*
X588000Y947412D01*
X598566D01*
X598932Y946413D01*
X598950Y946142D01*
X597799Y944991D01*
X596943Y943509D01*
X596500Y941856D01*
Y940144D01*
X596943Y938491D01*
X597799Y937009D01*
X599009Y935799D01*
X600491Y934943D01*
X601359Y934710D01*
X635035Y901035D01*
X634217Y900147D01*
X574359Y840290D01*
X573491Y840057D01*
X572009Y839201D01*
X570799Y837991D01*
X569943Y836509D01*
X569500Y834856D01*
Y833144D01*
X569943Y831491D01*
X570799Y830009D01*
X572009Y828799D01*
X573491Y827943D01*
X574359Y827710D01*
X591035Y811035D01*
X596251Y805818D01*
X598070Y804603D01*
X600216Y804176D01*
X602000D01*
Y803227D01*
X602692Y799750D01*
X604049Y796474D01*
X606018Y793526D01*
X608526Y791019D01*
X611143Y789270D01*
X610757Y788000D01*
X480000D01*
Y982000D01*
X858000D01*
Y924216D01*
D02*
G37*
%LPC*%
G36*
X818251Y972500D02*
X815749D01*
X813333Y971853D01*
X811167Y970602D01*
X809398Y968833D01*
X808147Y966667D01*
X807657Y964838D01*
X806343D01*
X805853Y966667D01*
X804602Y968833D01*
X802833Y970602D01*
X800667Y971853D01*
X798251Y972500D01*
X795749D01*
X793333Y971853D01*
X791167Y970602D01*
X789398Y968833D01*
X788147Y966667D01*
X787500Y964251D01*
Y961749D01*
X788147Y959333D01*
X789398Y957167D01*
X791167Y955398D01*
X793333Y954147D01*
X795749Y953500D01*
X798251D01*
X799639Y953872D01*
X821412Y932100D01*
Y868604D01*
X820799Y867991D01*
X819943Y866509D01*
X819500Y864856D01*
Y863144D01*
X819943Y861491D01*
X820799Y860009D01*
X822009Y858799D01*
X823491Y857943D01*
X825144Y857500D01*
X826856D01*
X828509Y857943D01*
X829991Y858799D01*
X831201Y860009D01*
X832057Y861491D01*
X832500Y863144D01*
Y864856D01*
X832057Y866509D01*
X831201Y867991D01*
X830588Y868604D01*
Y934000D01*
X830239Y935756D01*
X829244Y937244D01*
X813774Y952714D01*
X814432Y953853D01*
X815749Y953500D01*
X818251D01*
X820667Y954147D01*
X822833Y955398D01*
X824602Y957167D01*
X825853Y959333D01*
X826500Y961749D01*
Y964251D01*
X825853Y966667D01*
X824602Y968833D01*
X822833Y970602D01*
X820667Y971853D01*
X818251Y972500D01*
D02*
G37*
G36*
X840250Y971603D02*
X838500D01*
Y964500D01*
X845603D01*
Y966250D01*
X845195Y968298D01*
X844035Y970035D01*
X842298Y971195D01*
X840250Y971603D01*
D02*
G37*
G36*
X835500D02*
X833750D01*
X831702Y971195D01*
X829965Y970035D01*
X828805Y968298D01*
X828397Y966250D01*
Y964500D01*
X835500D01*
Y971603D01*
D02*
G37*
G36*
X741000Y980608D02*
X521000D01*
X518854Y980181D01*
X517035Y978965D01*
X508320Y970250D01*
X493750D01*
Y947750D01*
X516250D01*
Y962319D01*
X523323Y969392D01*
X524960D01*
X525300Y968122D01*
X523706Y967202D01*
X521798Y965294D01*
X520448Y962956D01*
X519790Y960500D01*
X540210D01*
X539552Y962956D01*
X538202Y965294D01*
X536294Y967202D01*
X534700Y968122D01*
X535040Y969392D01*
X738677D01*
X747622Y960447D01*
X746965Y959309D01*
X746251Y959500D01*
X743749D01*
X741333Y958853D01*
X739167Y957602D01*
X737398Y955833D01*
X736147Y953667D01*
X735500Y951251D01*
Y948749D01*
X736147Y946333D01*
X737398Y944167D01*
X739167Y942398D01*
X741333Y941147D01*
X742742Y940770D01*
X742575Y939500D01*
X735500D01*
Y932425D01*
X734230Y932258D01*
X733853Y933667D01*
X732602Y935833D01*
X730833Y937602D01*
X728667Y938853D01*
X726251Y939500D01*
X723749D01*
X721333Y938853D01*
X719167Y937602D01*
X717398Y935833D01*
X716147Y933667D01*
X715500Y931251D01*
Y928749D01*
X716147Y926333D01*
X717398Y924167D01*
X719167Y922398D01*
X721333Y921147D01*
X723749Y920500D01*
X726251D01*
X728667Y921147D01*
X730833Y922398D01*
X732602Y924167D01*
X733853Y926333D01*
X734230Y927742D01*
X735500Y927575D01*
Y920500D01*
X754500D01*
Y939500D01*
X747425D01*
X747258Y940770D01*
X748667Y941147D01*
X750833Y942398D01*
X752602Y944167D01*
X753853Y946333D01*
X754500Y948749D01*
Y951251D01*
X754309Y951965D01*
X755447Y952622D01*
X793710Y914359D01*
X793943Y913491D01*
X794799Y912009D01*
X796009Y910799D01*
X797491Y909943D01*
X799144Y909500D01*
X800856D01*
X802509Y909943D01*
X803991Y910799D01*
X805201Y912009D01*
X806057Y913491D01*
X806500Y915144D01*
Y916856D01*
X806057Y918509D01*
X805201Y919991D01*
X803991Y921201D01*
X802509Y922057D01*
X801641Y922290D01*
X744965Y978965D01*
X743146Y980181D01*
X741000Y980608D01*
D02*
G37*
G36*
X845603Y961500D02*
X838500D01*
Y954397D01*
X840250D01*
X842298Y954805D01*
X844035Y955965D01*
X845195Y957702D01*
X845603Y959750D01*
Y961500D01*
D02*
G37*
G36*
X835500D02*
X828397D01*
Y959750D01*
X828805Y957702D01*
X829965Y955965D01*
X831702Y954805D01*
X833750Y954397D01*
X835500D01*
Y961500D01*
D02*
G37*
G36*
X726500Y958398D02*
Y951500D01*
X733398D01*
X732921Y953281D01*
X731802Y955219D01*
X730219Y956802D01*
X728281Y957921D01*
X726500Y958398D01*
D02*
G37*
G36*
X723500Y958398D02*
X721719Y957921D01*
X719781Y956802D01*
X718198Y955219D01*
X717079Y953281D01*
X716602Y951500D01*
X723500D01*
Y958398D01*
D02*
G37*
G36*
X540210Y957500D02*
X531500D01*
Y948790D01*
X533956Y949448D01*
X536294Y950798D01*
X538202Y952706D01*
X539552Y955044D01*
X540210Y957500D01*
D02*
G37*
G36*
X528500D02*
X519790D01*
X520448Y955044D01*
X521798Y952706D01*
X523706Y950798D01*
X526044Y949448D01*
X528500Y948790D01*
Y957500D01*
D02*
G37*
G36*
X733398Y948500D02*
X726500D01*
Y941602D01*
X728281Y942079D01*
X730219Y943198D01*
X731802Y944781D01*
X732921Y946719D01*
X733398Y948500D01*
D02*
G37*
G36*
X723500D02*
X716602D01*
X717079Y946719D01*
X718198Y944781D01*
X719781Y943198D01*
X721719Y942079D01*
X723500Y941602D01*
Y948500D01*
D02*
G37*
G36*
X848500Y893500D02*
X840049D01*
X840682Y891140D01*
X841998Y888860D01*
X843860Y886998D01*
X846140Y885682D01*
X848500Y885049D01*
Y893500D01*
D02*
G37*
G36*
X731773Y848000D02*
X728227D01*
X724750Y847308D01*
X721474Y845951D01*
X718526Y843981D01*
X716019Y841474D01*
X714049Y838526D01*
X712692Y835250D01*
X712000Y831773D01*
Y828227D01*
X712692Y824750D01*
X714049Y821474D01*
X716019Y818526D01*
X718526Y816019D01*
X721474Y814049D01*
X724750Y812692D01*
X728227Y812000D01*
X731773D01*
X735250Y812692D01*
X738526Y814049D01*
X741474Y816019D01*
X743981Y818526D01*
X745951Y821474D01*
X747308Y824750D01*
X748000Y828227D01*
Y831773D01*
X747308Y835250D01*
X745951Y838526D01*
X743981Y841474D01*
X741474Y843981D01*
X738526Y845951D01*
X735250Y847308D01*
X731773Y848000D01*
D02*
G37*
G36*
X838500Y822000D02*
X838326D01*
X835041Y821347D01*
X831947Y820065D01*
X829163Y818205D01*
X826795Y815837D01*
X824935Y813053D01*
X823653Y809959D01*
X823000Y806674D01*
Y806500D01*
X838500D01*
Y822000D01*
D02*
G37*
%LPD*%
D49*
X576000Y834000D02*
X595000Y815000D01*
X576000Y834000D02*
X576000D01*
X600216Y809783D02*
X615216D01*
X595000Y815000D02*
X600216Y809783D01*
X615216D02*
X620000Y805000D01*
X576000Y834000D02*
X643000Y901000D01*
X615000Y805000D02*
X620000D01*
X643000Y901000D02*
X664000Y880000D01*
Y836000D02*
Y880000D01*
X521000Y975000D02*
X741000D01*
X800000Y916000D01*
X508000Y962000D02*
X521000Y975000D01*
X643000Y901000D02*
X687000Y945000D01*
X603000Y941000D02*
X639000Y905000D01*
X643000Y901000D01*
X687000Y945000D02*
X707000D01*
D50*
X613000Y952000D02*
X635000Y930000D01*
X588000Y952000D02*
X613000D01*
X583000Y957000D02*
X588000Y952000D01*
X826000Y864000D02*
Y934000D01*
X797000Y963000D02*
X826000Y934000D01*
D52*
X797000Y963000D02*
D03*
X817000D02*
D03*
X745000Y950000D02*
D03*
X725000Y930000D02*
D03*
Y950000D02*
D03*
D53*
X837000Y963000D02*
D03*
D54*
X850000Y915000D02*
D03*
Y895000D02*
D03*
D55*
X730000Y830000D02*
D03*
X620000Y805000D02*
D03*
X840000D02*
D03*
D56*
X745000Y930000D02*
D03*
D57*
X505000Y959000D02*
D03*
D58*
X530000D02*
D03*
D59*
X784000Y904000D02*
D03*
X694000Y836000D02*
D03*
X576000Y834000D02*
D03*
Y805000D02*
D03*
X513000Y910000D02*
D03*
X664000Y836000D02*
D03*
X666000Y960000D02*
D03*
X603000Y964000D02*
D03*
X583000Y957000D02*
D03*
X635000Y930000D02*
D03*
X826000Y864000D02*
D03*
X545000Y881000D02*
D03*
X800000Y916000D02*
D03*
X623000Y901000D02*
D03*
X644000Y879000D02*
D03*
Y920000D02*
D03*
X665000Y902000D02*
D03*
X707000Y945000D02*
D03*
X603000Y941000D02*
D03*
M02*
