G04*
G04 #@! TF.GenerationSoftware,Altium Limited,Altium Designer,21.8.1 (53)*
G04*
G04 Layer_Color=16711935*
%FSLAX44Y44*%
%MOMM*%
G71*
G04*
G04 #@! TF.SameCoordinates,07770754-C78C-4D38-BC67-4B072819B11E*
G04*
G04*
G04 #@! TF.FilePolarity,Negative*
G04*
G01*
G75*
%ADD27C,1.4000*%
G04:AMPARAMS|DCode=28|XSize=1.4mm|YSize=1.4mm|CornerRadius=0.375mm|HoleSize=0mm|Usage=FLASHONLY|Rotation=0.000|XOffset=0mm|YOffset=0mm|HoleType=Round|Shape=RoundedRectangle|*
%AMROUNDEDRECTD28*
21,1,1.4000,0.6500,0,0,0.0*
21,1,0.6500,1.4000,0,0,0.0*
1,1,0.7500,0.3250,-0.3250*
1,1,0.7500,-0.3250,-0.3250*
1,1,0.7500,-0.3250,0.3250*
1,1,0.7500,0.3250,0.3250*
%
%ADD28ROUNDEDRECTD28*%
%ADD29C,1.7000*%
%ADD30C,3.1000*%
%ADD31R,1.4000X1.4000*%
%ADD32R,1.7500X1.7500*%
%ADD33C,1.7500*%
%ADD34C,0.8000*%
D27*
X797000Y963000D02*
D03*
X817000D02*
D03*
X745000Y950000D02*
D03*
X725000Y930000D02*
D03*
Y950000D02*
D03*
D28*
X837000Y963000D02*
D03*
D29*
X850000Y915000D02*
D03*
Y895000D02*
D03*
D30*
X730000Y830000D02*
D03*
X620000Y805000D02*
D03*
X840000D02*
D03*
D31*
X745000Y930000D02*
D03*
D32*
X505000Y959000D02*
D03*
D33*
X530000D02*
D03*
D34*
X784000Y904000D02*
D03*
X694000Y836000D02*
D03*
X576000Y834000D02*
D03*
Y805000D02*
D03*
X513000Y910000D02*
D03*
X664000Y836000D02*
D03*
X666000Y960000D02*
D03*
X603000Y964000D02*
D03*
X583000Y957000D02*
D03*
X635000Y930000D02*
D03*
X826000Y864000D02*
D03*
X545000Y881000D02*
D03*
X800000Y916000D02*
D03*
X623000Y901000D02*
D03*
X644000Y879000D02*
D03*
Y920000D02*
D03*
X665000Y902000D02*
D03*
X707000Y945000D02*
D03*
X603000Y941000D02*
D03*
M02*
