M48
;Layer_Color=9474304
;FILE_FORMAT=4:4
METRIC,LZ
;TYPE=PLATED
T1F00S00C0.3500
T2F00S00C0.8000
T3F00S00C1.1000
T4F00S00C1.5000
%
T01
X00576Y00805
Y00834
X00545Y00881
X00513Y0091
X00583Y00957
X00603Y00964
X00603Y00941
X00635Y0093
X00644Y0092
X00665Y00902
X00623Y00901
X00644Y00879
X00664Y00836
X00694
X00707Y00945
X00666Y0096
X00784Y00904
X008Y00916
X00826Y00864
T02
X00725Y0093
X00745
Y0095
X00725
X00797Y00963
X00817
X00837
X0085Y00915
Y00895
T03
X00505Y00959
X0053
T04
X0062Y00805
X0073Y0083
X0084Y00805
M30
