G04*
G04 #@! TF.GenerationSoftware,Altium Limited,Altium Designer,21.8.1 (53)*
G04*
G04 Layer_Color=10066329*
%FSLAX44Y44*%
%MOMM*%
G71*
G04*
G04 #@! TF.SameCoordinates,07770754-C78C-4D38-BC67-4B072819B11E*
G04*
G04*
G04 #@! TF.FilePolarity,Positive*
G04*
G01*
G75*
%ADD10C,0.2500*%
%ADD11C,0.6000*%
%ADD12C,0.2000*%
D10*
X748250Y897550D02*
G03*
X748250Y897550I-1250J0D01*
G01*
X547750Y861000D02*
G03*
X547750Y861000I-1250J0D01*
G01*
X603250Y934500D02*
G03*
X603250Y934500I-1250J0D01*
G01*
D11*
X628000Y917500D02*
G03*
X628000Y917500I-3000J0D01*
G01*
D12*
X840000Y855000D02*
Y864000D01*
X826000Y855000D02*
X840000D01*
Y876000D02*
Y885000D01*
X826000D02*
X840000D01*
X714000Y874000D02*
Y906000D01*
X730000Y874000D02*
Y906000D01*
X714000D02*
X730000D01*
X714000Y874000D02*
X730000D01*
X761000Y845000D02*
X783000D01*
X761000Y895000D02*
X783000D01*
Y845000D02*
Y895000D01*
X761000Y845000D02*
Y895000D01*
X699000Y852000D02*
X731000D01*
X699000Y868000D02*
X731000D01*
X699000Y852000D02*
Y868000D01*
X731000Y852000D02*
Y868000D01*
X644000Y973000D02*
X676000D01*
X644000Y957000D02*
X676000D01*
X644000D02*
Y973000D01*
X676000Y957000D02*
Y973000D01*
X609000D02*
X641000D01*
X609000Y957000D02*
X641000D01*
Y973000D01*
X609000Y957000D02*
Y973000D01*
X739000Y902000D02*
X771000D01*
X739000Y918000D02*
X771000D01*
X739000Y902000D02*
Y918000D01*
X771000Y902000D02*
Y918000D01*
X808000Y902000D02*
Y918000D01*
X776000Y902000D02*
Y918000D01*
Y902000D02*
X808000D01*
X776000Y918000D02*
X808000D01*
X588000Y831000D02*
X604000D01*
X588000Y863000D02*
X604000D01*
X588000Y831000D02*
Y863000D01*
X604000Y831000D02*
Y863000D01*
X578000Y796000D02*
Y844000D01*
X554000Y796000D02*
Y844000D01*
X578000D01*
X554000Y796000D02*
X578000D01*
X479500Y846000D02*
X546500D01*
X479500Y818000D02*
X546500D01*
Y846000D01*
X479500Y818000D02*
Y846000D01*
X780000Y938000D02*
Y970000D01*
X764000Y938000D02*
Y970000D01*
Y938000D02*
X780000D01*
X764000Y970000D02*
X780000D01*
X615000Y872500D02*
Y927500D01*
X670000Y872500D02*
Y927500D01*
X615000D02*
X670000D01*
X615000Y872500D02*
X670000D01*
X527000Y886000D02*
Y918000D01*
X511000Y886000D02*
Y918000D01*
X527000D01*
X511000Y886000D02*
X527000D01*
X547000D02*
Y918000D01*
X531000Y886000D02*
Y918000D01*
X547000D01*
X531000Y886000D02*
X547000D01*
X550000Y969000D02*
X566000D01*
X550000Y937000D02*
X566000D01*
Y969000D01*
X550000Y937000D02*
Y969000D01*
X793000Y948000D02*
X825000D01*
X793000Y932000D02*
X825000D01*
X793000D02*
Y948000D01*
X825000Y932000D02*
Y948000D01*
X677000Y937000D02*
X709000D01*
X677000Y953000D02*
X709000D01*
Y937000D02*
Y953000D01*
X677000Y937000D02*
Y953000D01*
X544000Y921000D02*
Y945000D01*
X496000Y921000D02*
Y945000D01*
Y921000D02*
X544000D01*
X496000Y945000D02*
X544000D01*
X590000Y969000D02*
X606000D01*
X590000Y937000D02*
X606000D01*
Y969000D01*
X590000Y937000D02*
Y969000D01*
X614000Y829000D02*
X646000D01*
X614000Y845000D02*
X646000D01*
X614000Y829000D02*
Y845000D01*
X646000Y829000D02*
Y845000D01*
X586000Y937000D02*
Y969000D01*
X570000Y937000D02*
Y969000D01*
Y937000D02*
X586000D01*
X570000Y969000D02*
X586000D01*
X546000Y853000D02*
X584000D01*
X546000D02*
Y875000D01*
X584000Y853000D02*
Y875000D01*
X546000D02*
X584000D01*
X552000Y878000D02*
Y894000D01*
X584000Y878000D02*
Y894000D01*
X552000D02*
X584000D01*
X552000Y878000D02*
X584000D01*
X663000Y844000D02*
X695000D01*
X663000Y828000D02*
X695000D01*
X663000D02*
Y844000D01*
X695000Y828000D02*
Y844000D01*
M02*
