G04*
G04 #@! TF.GenerationSoftware,Altium Limited,Altium Designer,21.8.1 (53)*
G04*
G04 Layer_Color=16711935*
%FSAX44Y44*%
%MOMM*%
G71*
G04*
G04 #@! TF.SameCoordinates,6BB75745-684E-4E6C-8D6C-D78F644A18B4*
G04*
G04*
G04 #@! TF.FilePolarity,Negative*
G04*
G01*
G75*
%ADD20C,5.0500*%
%ADD21C,5.5500*%
%ADD22C,3.0500*%
G04:AMPARAMS|DCode=23|XSize=3.05mm|YSize=3.05mm|CornerRadius=0.775mm|HoleSize=0mm|Usage=FLASHONLY|Rotation=270.000|XOffset=0mm|YOffset=0mm|HoleType=Round|Shape=RoundedRectangle|*
%AMROUNDEDRECTD23*
21,1,3.0500,1.5000,0,0,270.0*
21,1,1.5000,3.0500,0,0,270.0*
1,1,1.5500,-0.7500,-0.7500*
1,1,1.5500,-0.7500,0.7500*
1,1,1.5500,0.7500,0.7500*
1,1,1.5500,0.7500,-0.7500*
%
%ADD23ROUNDEDRECTD23*%
%ADD24C,2.5500*%
G04:AMPARAMS|DCode=25|XSize=2.55mm|YSize=2.55mm|CornerRadius=0.65mm|HoleSize=0mm|Usage=FLASHONLY|Rotation=90.000|XOffset=0mm|YOffset=0mm|HoleType=Round|Shape=RoundedRectangle|*
%AMROUNDEDRECTD25*
21,1,2.5500,1.2500,0,0,90.0*
21,1,1.2500,2.5500,0,0,90.0*
1,1,1.3000,0.6250,0.6250*
1,1,1.3000,0.6250,-0.6250*
1,1,1.3000,-0.6250,-0.6250*
1,1,1.3000,-0.6250,0.6250*
%
%ADD25ROUNDEDRECTD25*%
%ADD26C,0.7500*%
%ADD53R,12.1500X3.3000*%
%ADD54R,3.3000X12.1500*%
D20*
X01341000Y00385000D02*
D03*
X01030000Y00702000D02*
D03*
X01341000D02*
D03*
D21*
X01030000Y00385000D02*
D03*
D22*
X01325000Y00516000D02*
D03*
Y00555600D02*
D03*
D23*
Y00595200D02*
D03*
D24*
X01049000Y00588800D02*
D03*
D25*
Y00549200D02*
D03*
D26*
X01208000Y00559000D02*
D03*
X01203000Y00547000D02*
D03*
X01168000Y00703000D02*
D03*
Y00694000D02*
D03*
X01189000Y00703000D02*
D03*
Y00694000D02*
D03*
X01217000Y00546000D02*
D03*
Y00559000D02*
D03*
X01104000Y00386000D02*
D03*
X01255000Y00460000D02*
D03*
X01265000Y00456000D02*
D03*
X01264000Y00446000D02*
D03*
X01244000Y00457000D02*
D03*
X01211000Y00588000D02*
D03*
X01214000Y00643000D02*
D03*
X01097000Y00694000D02*
D03*
X01239000Y00588000D02*
D03*
X01150000Y00363000D02*
D03*
X01216000Y00394000D02*
D03*
X01206000D02*
D03*
X01216000Y00384000D02*
D03*
X01206000D02*
D03*
X01151000Y00648000D02*
D03*
X01141000D02*
D03*
Y00658000D02*
D03*
X01151000D02*
D03*
D53*
X01181000Y00546500D02*
D03*
Y00701500D02*
D03*
D54*
X01259500Y00440000D02*
D03*
X01104500D02*
D03*
M02*
