M48
;Layer_Color=9474304
;FILE_FORMAT=4:4
METRIC,LZ
;TYPE=PLATED
T1F00S00C0.3500
T2F00S00C1.6000
T3F00S00C3.2000
%
T01
X01104Y00386
X0115Y00363
X01206Y00384
Y00394
X01216
Y00384
X01244Y00457
X01255Y0046
X01265Y00456
X01264Y00446
X01217Y00546
Y00559
X01208
X01203Y00547
X01211Y00588
X01239
X01214Y00643
X01151Y00648
X01141
Y00658
X01151
X01168Y00694
Y00703
X01189
Y00694
X01097
T02
X01325Y00516
Y005556
Y005952
X01049Y005888
Y005492
T03
X0103Y00385
X01341
Y00702
X0103
M30
