G04*
G04 #@! TF.GenerationSoftware,Altium Limited,Altium Designer,21.8.1 (53)*
G04*
G04 Layer_Color=8388736*
%FSAX44Y44*%
%MOMM*%
G71*
G04*
G04 #@! TF.SameCoordinates,6BB75745-684E-4E6C-8D6C-D78F644A18B4*
G04*
G04*
G04 #@! TF.FilePolarity,Negative*
G04*
G01*
G75*
%ADD11R,2.2500X1.6000*%
%ADD12R,1.8500X1.3500*%
%ADD13R,1.3500X1.8500*%
%ADD14R,1.8800X1.9400*%
%ADD15R,1.4500X0.3500*%
%ADD16R,1.0500X1.0500*%
%ADD17R,1.0500X0.9500*%
%ADD18R,0.9500X1.0500*%
%ADD19R,1.0500X1.0500*%
%ADD20C,5.0500*%
%ADD21C,5.5500*%
%ADD22C,3.0500*%
G04:AMPARAMS|DCode=23|XSize=3.05mm|YSize=3.05mm|CornerRadius=0.775mm|HoleSize=0mm|Usage=FLASHONLY|Rotation=270.000|XOffset=0mm|YOffset=0mm|HoleType=Round|Shape=RoundedRectangle|*
%AMROUNDEDRECTD23*
21,1,3.0500,1.5000,0,0,270.0*
21,1,1.5000,3.0500,0,0,270.0*
1,1,1.5500,-0.7500,-0.7500*
1,1,1.5500,-0.7500,0.7500*
1,1,1.5500,0.7500,0.7500*
1,1,1.5500,0.7500,-0.7500*
%
%ADD23ROUNDEDRECTD23*%
%ADD24C,2.5500*%
G04:AMPARAMS|DCode=25|XSize=2.55mm|YSize=2.55mm|CornerRadius=0.65mm|HoleSize=0mm|Usage=FLASHONLY|Rotation=90.000|XOffset=0mm|YOffset=0mm|HoleType=Round|Shape=RoundedRectangle|*
%AMROUNDEDRECTD25*
21,1,2.5500,1.2500,0,0,90.0*
21,1,1.2500,2.5500,0,0,90.0*
1,1,1.3000,0.6250,0.6250*
1,1,1.3000,0.6250,-0.6250*
1,1,1.3000,-0.6250,-0.6250*
1,1,1.3000,-0.6250,0.6250*
%
%ADD25ROUNDEDRECTD25*%
%ADD26C,0.7500*%
D11*
X01178250Y00698000D02*
D03*
X01219250D02*
D03*
X01254500Y00453000D02*
D03*
X01295500D02*
D03*
D12*
X01097000Y00686500D02*
D03*
Y00657500D02*
D03*
X01239000Y00552500D02*
D03*
Y00581500D02*
D03*
X01155000Y00394500D02*
D03*
Y00423500D02*
D03*
X01069000Y00657500D02*
D03*
Y00686500D02*
D03*
X01211000Y00581500D02*
D03*
Y00552500D02*
D03*
X01127000Y00423500D02*
D03*
Y00394500D02*
D03*
D13*
X01294500Y00515000D02*
D03*
X01265500D02*
D03*
X01294500Y00487000D02*
D03*
X01265500D02*
D03*
D14*
X01146000Y00653000D02*
D03*
X01211000Y00389000D02*
D03*
D15*
X01168000Y00663000D02*
D03*
Y00658000D02*
D03*
Y00653000D02*
D03*
Y00648000D02*
D03*
Y00643000D02*
D03*
X01124000D02*
D03*
Y00648000D02*
D03*
Y00653000D02*
D03*
Y00658000D02*
D03*
Y00663000D02*
D03*
X01189000Y00399000D02*
D03*
Y00394000D02*
D03*
Y00389000D02*
D03*
Y00384000D02*
D03*
Y00379000D02*
D03*
X01233000D02*
D03*
Y00384000D02*
D03*
Y00389000D02*
D03*
Y00394000D02*
D03*
Y00399000D02*
D03*
D16*
X01253000Y00425000D02*
D03*
Y00409000D02*
D03*
X01291000Y00425000D02*
D03*
Y00409000D02*
D03*
X01231000Y00608000D02*
D03*
Y00624000D02*
D03*
X01111000Y00624000D02*
D03*
Y00608000D02*
D03*
D17*
X01291000Y00374000D02*
D03*
Y00391000D02*
D03*
X01272000D02*
D03*
Y00374000D02*
D03*
Y00408500D02*
D03*
Y00425500D02*
D03*
X01253000Y00391000D02*
D03*
Y00374000D02*
D03*
X01151000Y00607500D02*
D03*
Y00624500D02*
D03*
X01192000Y00607500D02*
D03*
Y00624500D02*
D03*
X01212000Y00624500D02*
D03*
Y00607500D02*
D03*
X01130000Y00607500D02*
D03*
Y00624500D02*
D03*
X01170000Y00624500D02*
D03*
Y00607500D02*
D03*
D18*
X01194500Y00363000D02*
D03*
X01211500D02*
D03*
D19*
X01172000D02*
D03*
X01156000D02*
D03*
X01219000Y00416000D02*
D03*
X01203000D02*
D03*
X01192000Y00643000D02*
D03*
X01208000D02*
D03*
X01137000Y00682000D02*
D03*
X01153000D02*
D03*
D20*
X01341000Y00385000D02*
D03*
X01030000Y00702000D02*
D03*
X01341000D02*
D03*
D21*
X01030000Y00385000D02*
D03*
D22*
X01325000Y00516000D02*
D03*
Y00555600D02*
D03*
D23*
Y00595200D02*
D03*
D24*
X01049000Y00588800D02*
D03*
D25*
Y00549200D02*
D03*
D26*
X01208000Y00559000D02*
D03*
X01203000Y00547000D02*
D03*
X01168000Y00703000D02*
D03*
Y00694000D02*
D03*
X01189000Y00703000D02*
D03*
Y00694000D02*
D03*
X01217000Y00546000D02*
D03*
Y00559000D02*
D03*
X01104000Y00386000D02*
D03*
X01255000Y00460000D02*
D03*
X01265000Y00456000D02*
D03*
X01264000Y00446000D02*
D03*
X01244000Y00457000D02*
D03*
X01211000Y00588000D02*
D03*
X01214000Y00643000D02*
D03*
X01097000Y00694000D02*
D03*
X01239000Y00588000D02*
D03*
X01150000Y00363000D02*
D03*
X01216000Y00394000D02*
D03*
X01206000D02*
D03*
X01216000Y00384000D02*
D03*
X01206000D02*
D03*
X01151000Y00648000D02*
D03*
X01141000D02*
D03*
Y00658000D02*
D03*
X01151000D02*
D03*
M02*
