G04*
G04 #@! TF.GenerationSoftware,Altium Limited,Altium Designer,21.8.1 (53)*
G04*
G04 Layer_Color=65535*
%FSAX44Y44*%
%MOMM*%
G71*
G04*
G04 #@! TF.SameCoordinates,6BB75745-684E-4E6C-8D6C-D78F644A18B4*
G04*
G04*
G04 #@! TF.FilePolarity,Positive*
G04*
G01*
G75*
%ADD10C,0.2000*%
D10*
X01170500Y00711320D02*
X01224270D01*
X01173230Y00684680D02*
X01224270D01*
X01085000Y00696000D02*
X01109000D01*
X01085000Y00648000D02*
X01109000D01*
Y00696000D01*
X01085000Y00648000D02*
Y00696000D01*
X01227000Y00543000D02*
Y00591000D01*
X01251000Y00543000D02*
Y00591000D01*
X01227000Y00543000D02*
X01251000D01*
X01227000Y00591000D02*
X01251000D01*
X01256000Y00503000D02*
X01304000D01*
X01256000Y00527000D02*
X01304000D01*
Y00503000D02*
Y00527000D01*
X01256000Y00503000D02*
Y00527000D01*
Y00475000D02*
X01304000D01*
X01256000Y00499000D02*
X01304000D01*
Y00475000D02*
Y00499000D01*
X01256000Y00475000D02*
Y00499000D01*
X01246750Y00466320D02*
X01300520D01*
X01249480Y00439680D02*
X01300520D01*
X01117000Y00668000D02*
X01131000D01*
X01182000Y00404000D02*
X01196000D01*
X01245000Y00401000D02*
Y00433000D01*
X01261000Y00401000D02*
Y00433000D01*
X01245000Y00401000D02*
X01261000D01*
X01245000Y00433000D02*
X01261000D01*
X01283000Y00366500D02*
Y00398500D01*
X01299000Y00366500D02*
Y00398500D01*
X01283000D02*
X01299000D01*
X01283000Y00366500D02*
X01299000D01*
X01280000Y00366500D02*
Y00398500D01*
X01264000Y00366500D02*
Y00398500D01*
Y00366500D02*
X01280000D01*
X01264000Y00398500D02*
X01280000D01*
X01264000Y00433000D02*
X01280000D01*
X01264000Y00401000D02*
X01280000D01*
X01264000D02*
Y00433000D01*
X01280000Y00401000D02*
Y00433000D01*
X01283000Y00401000D02*
Y00433000D01*
X01299000Y00401000D02*
Y00433000D01*
X01283000Y00401000D02*
X01299000D01*
X01283000Y00433000D02*
X01299000D01*
X01261000Y00366500D02*
Y00398500D01*
X01245000Y00366500D02*
Y00398500D01*
Y00366500D02*
X01261000D01*
X01245000Y00398500D02*
X01261000D01*
X01143000Y00385000D02*
Y00433000D01*
X01167000Y00385000D02*
Y00433000D01*
X01143000Y00385000D02*
X01167000D01*
X01143000Y00433000D02*
X01167000D01*
X01187000Y00371000D02*
X01219000D01*
X01187000Y00355000D02*
X01219000D01*
Y00371000D01*
X01187000Y00355000D02*
Y00371000D01*
X01148000Y00355000D02*
Y00371000D01*
X01180000Y00355000D02*
Y00371000D01*
X01148000D02*
X01180000D01*
X01148000Y00355000D02*
X01180000D01*
X01195000Y00424000D02*
X01227000D01*
X01195000Y00408000D02*
X01227000D01*
X01195000D02*
Y00424000D01*
X01227000Y00408000D02*
Y00424000D01*
X01143000Y00632000D02*
X01159000D01*
X01143000Y00600000D02*
X01159000D01*
X01143000D02*
Y00632000D01*
X01159000Y00600000D02*
Y00632000D01*
X01057000Y00648000D02*
Y00696000D01*
X01081000Y00648000D02*
Y00696000D01*
X01057000Y00648000D02*
X01081000D01*
X01057000Y00696000D02*
X01081000D01*
X01239000Y00600000D02*
Y00632000D01*
X01223000Y00600000D02*
Y00632000D01*
X01239000D01*
X01223000Y00600000D02*
X01239000D01*
X01199000Y00591000D02*
X01223000D01*
X01199000Y00543000D02*
X01223000D01*
Y00591000D01*
X01199000Y00543000D02*
Y00591000D01*
X01184000Y00632000D02*
X01200000D01*
X01184000Y00600000D02*
X01200000D01*
X01184000D02*
Y00632000D01*
X01200000Y00600000D02*
Y00632000D01*
X01216000Y00635000D02*
Y00651000D01*
X01184000Y00635000D02*
Y00651000D01*
Y00635000D02*
X01216000D01*
X01184000Y00651000D02*
X01216000D01*
X01204000Y00600000D02*
X01220000D01*
X01204000Y00632000D02*
X01220000D01*
Y00600000D02*
Y00632000D01*
X01204000Y00600000D02*
Y00632000D01*
X01122000D02*
X01138000D01*
X01122000Y00600000D02*
X01138000D01*
X01122000D02*
Y00632000D01*
X01138000Y00600000D02*
Y00632000D01*
X01115000Y00433000D02*
X01139000D01*
X01115000Y00385000D02*
X01139000D01*
Y00433000D01*
X01115000Y00385000D02*
Y00433000D01*
X01162000Y00600000D02*
X01178000D01*
X01162000Y00632000D02*
X01178000D01*
Y00600000D02*
Y00632000D01*
X01162000Y00600000D02*
Y00632000D01*
X01103000Y00600000D02*
X01119000D01*
X01103000Y00632000D02*
X01119000D01*
X01103000Y00600000D02*
Y00632000D01*
X01119000Y00600000D02*
Y00632000D01*
X01161000Y00674000D02*
Y00690000D01*
X01129000Y00674000D02*
Y00690000D01*
Y00674000D02*
X01161000D01*
X01129000Y00690000D02*
X01161000D01*
M02*
