G04*
G04 #@! TF.GenerationSoftware,Altium Limited,Altium Designer,21.8.1 (53)*
G04*
G04 Layer_Physical_Order=2*
G04 Layer_Color=16711680*
%FSAX44Y44*%
%MOMM*%
G71*
G04*
G04 #@! TF.SameCoordinates,6BB75745-684E-4E6C-8D6C-D78F644A18B4*
G04*
G04*
G04 #@! TF.FilePolarity,Positive*
G04*
G01*
G75*
%ADD43C,5.0000*%
%ADD44C,5.5000*%
%ADD45C,3.0000*%
G04:AMPARAMS|DCode=46|XSize=3mm|YSize=3mm|CornerRadius=0.75mm|HoleSize=0mm|Usage=FLASHONLY|Rotation=270.000|XOffset=0mm|YOffset=0mm|HoleType=Round|Shape=RoundedRectangle|*
%AMROUNDEDRECTD46*
21,1,3.0000,1.5000,0,0,270.0*
21,1,1.5000,3.0000,0,0,270.0*
1,1,1.5000,-0.7500,-0.7500*
1,1,1.5000,-0.7500,0.7500*
1,1,1.5000,0.7500,0.7500*
1,1,1.5000,0.7500,-0.7500*
%
%ADD46ROUNDEDRECTD46*%
%ADD47C,2.5000*%
G04:AMPARAMS|DCode=48|XSize=2.5mm|YSize=2.5mm|CornerRadius=0.625mm|HoleSize=0mm|Usage=FLASHONLY|Rotation=90.000|XOffset=0mm|YOffset=0mm|HoleType=Round|Shape=RoundedRectangle|*
%AMROUNDEDRECTD48*
21,1,2.5000,1.2500,0,0,90.0*
21,1,1.2500,2.5000,0,0,90.0*
1,1,1.2500,0.6250,0.6250*
1,1,1.2500,0.6250,-0.6250*
1,1,1.2500,-0.6250,-0.6250*
1,1,1.2500,-0.6250,0.6250*
%
%ADD48ROUNDEDRECTD48*%
%ADD49C,0.7000*%
%ADD50R,12.1000X3.2500*%
%ADD51R,3.2500X12.1000*%
%ADD52C,3.0000*%
G36*
X01365000Y00403359D02*
X01363792Y00402967D01*
X01363120Y00403892D01*
X01359892Y00407120D01*
X01356199Y00409803D01*
X01352132Y00411875D01*
X01347791Y00413286D01*
X01343282Y00414000D01*
X01338718D01*
X01334209Y00413286D01*
X01329868Y00411875D01*
X01325801Y00409803D01*
X01322108Y00407120D01*
X01318880Y00403892D01*
X01316197Y00400199D01*
X01314125Y00396132D01*
X01312714Y00391791D01*
X01312000Y00387282D01*
Y00382718D01*
X01312714Y00378209D01*
X01314125Y00373868D01*
X01316197Y00369801D01*
X01318880Y00366108D01*
X01322108Y00362880D01*
X01325801Y00360197D01*
X01329868Y00358125D01*
X01334209Y00356714D01*
X01338718Y00356000D01*
X01343282D01*
X01347791Y00356714D01*
X01352132Y00358125D01*
X01356199Y00360197D01*
X01359892Y00362880D01*
X01363120Y00366108D01*
X01363792Y00367033D01*
X01365000Y00366641D01*
Y00354000D01*
X01040638D01*
X01040437Y00355270D01*
X01042092Y00355808D01*
X01046510Y00358059D01*
X01050521Y00360973D01*
X01054027Y00364479D01*
X01056941Y00368490D01*
X01059192Y00372908D01*
X01060724Y00377624D01*
X01061500Y00382521D01*
Y00387479D01*
X01060724Y00392376D01*
X01059192Y00397092D01*
X01056941Y00401510D01*
X01054027Y00405521D01*
X01050521Y00409027D01*
X01046510Y00411941D01*
X01042092Y00414192D01*
X01037376Y00415724D01*
X01032479Y00416500D01*
X01027521D01*
X01022624Y00415724D01*
X01017908Y00414192D01*
X01013490Y00411941D01*
X01009479Y00409027D01*
X01006270Y00405818D01*
X01005000Y00406237D01*
Y00525000D01*
X01046200D01*
X01084158Y00487042D01*
Y00444000D01*
X01084250Y00443067D01*
Y00375500D01*
X01124750D01*
Y00504500D01*
X01119689D01*
X01119124Y00505557D01*
X01116750Y00508450D01*
X01101373Y00523827D01*
X01101859Y00525000D01*
X01307329D01*
X01308178Y00523730D01*
X01307211Y00521396D01*
X01306500Y00517822D01*
Y00517750D01*
X01325000D01*
X01343500D01*
Y00517822D01*
X01342789Y00521396D01*
X01341822Y00523730D01*
X01342671Y00525000D01*
X01365000D01*
Y00403359D01*
D02*
G37*
G36*
X01321718Y00723730D02*
X01318880Y00720892D01*
X01316197Y00717199D01*
X01314125Y00713132D01*
X01312714Y00708791D01*
X01312000Y00704282D01*
Y00699718D01*
X01312714Y00695209D01*
X01314125Y00690868D01*
X01316197Y00686801D01*
X01318880Y00683108D01*
X01322108Y00679880D01*
X01325801Y00677197D01*
X01329868Y00675125D01*
X01334209Y00673714D01*
X01338718Y00673000D01*
X01343282D01*
X01347791Y00673714D01*
X01352132Y00675125D01*
X01356199Y00677197D01*
X01359892Y00679880D01*
X01363120Y00683108D01*
X01363792Y00684033D01*
X01365000Y00683641D01*
Y00529078D01*
X01342671D01*
X01342277Y00529000D01*
X01341875D01*
X01341504Y00528846D01*
X01341110Y00528768D01*
X01340904Y00528630D01*
X01339758Y00528112D01*
X01337112Y00530758D01*
X01334000Y00532838D01*
X01330542Y00534270D01*
X01326871Y00535000D01*
X01323129D01*
X01319458Y00534270D01*
X01316000Y00532838D01*
X01312888Y00530758D01*
X01310882Y00528752D01*
X01309613Y00528396D01*
X01309096Y00528630D01*
X01308890Y00528768D01*
X01308496Y00528846D01*
X01308125Y00529000D01*
X01307723D01*
X01307329Y00529078D01*
X01245500D01*
Y00566750D01*
X01116500D01*
Y00529078D01*
X01101859D01*
X01100299Y00528768D01*
X01099149Y00528000D01*
X01048910D01*
X01047761Y00528768D01*
X01046200Y00529078D01*
X01046200Y00529078D01*
X01006000D01*
Y00683641D01*
X01007208Y00684033D01*
X01007880Y00683108D01*
X01011108Y00679880D01*
X01014801Y00677197D01*
X01018868Y00675125D01*
X01023209Y00673714D01*
X01027718Y00673000D01*
X01032282D01*
X01036791Y00673714D01*
X01041132Y00675125D01*
X01045199Y00677197D01*
X01048892Y00679880D01*
X01052120Y00683108D01*
X01054803Y00686801D01*
X01056875Y00690868D01*
X01058286Y00695209D01*
X01059000Y00699718D01*
Y00704282D01*
X01058286Y00708791D01*
X01056875Y00713132D01*
X01054803Y00717199D01*
X01052120Y00720892D01*
X01049282Y00723730D01*
X01049808Y00725000D01*
X01321192D01*
X01321718Y00723730D01*
D02*
G37*
%LPC*%
G36*
X01343500Y00514250D02*
X01326750D01*
Y00497500D01*
X01326822D01*
X01330396Y00498211D01*
X01333763Y00499605D01*
X01336793Y00501630D01*
X01339370Y00504207D01*
X01341395Y00507237D01*
X01342789Y00510604D01*
X01343500Y00514178D01*
Y00514250D01*
D02*
G37*
G36*
X01323250D02*
X01306500D01*
Y00514178D01*
X01307211Y00510604D01*
X01308605Y00507237D01*
X01310630Y00504207D01*
X01313207Y00501630D01*
X01316237Y00499605D01*
X01319604Y00498211D01*
X01323178Y00497500D01*
X01323250D01*
Y00514250D01*
D02*
G37*
G36*
X01279750Y00504500D02*
X01239250D01*
Y00462857D01*
X01237999Y00461605D01*
X01237011Y00459895D01*
X01236500Y00457987D01*
Y00456013D01*
X01237011Y00454105D01*
X01237999Y00452395D01*
X01239250Y00451143D01*
Y00375500D01*
X01279750D01*
Y00504500D01*
D02*
G37*
G36*
X01245500Y00721750D02*
X01116500D01*
Y00681250D01*
X01245500D01*
Y00721750D01*
D02*
G37*
G36*
X01332500Y00614299D02*
X01317500D01*
X01314498Y00613904D01*
X01311700Y00612745D01*
X01309298Y00610902D01*
X01307455Y00608500D01*
X01306296Y00605702D01*
X01305901Y00602700D01*
Y00587700D01*
X01306296Y00584698D01*
X01307455Y00581900D01*
X01309298Y00579498D01*
X01311700Y00577655D01*
X01314498Y00576496D01*
X01317500Y00576101D01*
X01332500D01*
X01335502Y00576496D01*
X01338300Y00577655D01*
X01340702Y00579498D01*
X01342545Y00581900D01*
X01343704Y00584698D01*
X01344099Y00587700D01*
Y00602700D01*
X01343704Y00605702D01*
X01342545Y00608500D01*
X01340702Y00610902D01*
X01338300Y00612745D01*
X01335502Y00613904D01*
X01332500Y00614299D01*
D02*
G37*
G36*
X01050625Y00605300D02*
X01047375D01*
X01044187Y00604666D01*
X01041184Y00603422D01*
X01038482Y00601616D01*
X01036184Y00599318D01*
X01034378Y00596616D01*
X01033134Y00593613D01*
X01032500Y00590425D01*
Y00587175D01*
X01033134Y00583987D01*
X01034378Y00580984D01*
X01036184Y00578282D01*
X01038482Y00575984D01*
X01041184Y00574178D01*
X01044187Y00572934D01*
X01047375Y00572300D01*
X01050625D01*
X01053813Y00572934D01*
X01056816Y00574178D01*
X01059518Y00575984D01*
X01061816Y00578282D01*
X01063622Y00580984D01*
X01064866Y00583987D01*
X01065500Y00587175D01*
Y00590425D01*
X01064866Y00593613D01*
X01063622Y00596616D01*
X01061816Y00599318D01*
X01059518Y00601616D01*
X01056816Y00603422D01*
X01053813Y00604666D01*
X01050625Y00605300D01*
D02*
G37*
G36*
X01326822Y00574100D02*
X01326750D01*
Y00557350D01*
X01343500D01*
Y00557422D01*
X01342789Y00560996D01*
X01341395Y00564363D01*
X01339370Y00567393D01*
X01336793Y00569970D01*
X01333763Y00571995D01*
X01330396Y00573389D01*
X01326822Y00574100D01*
D02*
G37*
G36*
X01323250D02*
X01323178D01*
X01319604Y00573389D01*
X01316237Y00571995D01*
X01313207Y00569970D01*
X01310630Y00567393D01*
X01308605Y00564363D01*
X01307211Y00560996D01*
X01306500Y00557422D01*
Y00557350D01*
X01323250D01*
Y00574100D01*
D02*
G37*
G36*
X01055250Y00565284D02*
X01050750D01*
Y00550950D01*
X01065084D01*
Y00555450D01*
X01064749Y00557995D01*
X01063767Y00560367D01*
X01062204Y00562404D01*
X01060167Y00563967D01*
X01057795Y00564949D01*
X01055250Y00565284D01*
D02*
G37*
G36*
X01047250D02*
X01042750D01*
X01040205Y00564949D01*
X01037833Y00563967D01*
X01035796Y00562404D01*
X01034233Y00560367D01*
X01033251Y00557995D01*
X01032916Y00555450D01*
Y00550950D01*
X01047250D01*
Y00565284D01*
D02*
G37*
G36*
X01343500Y00553850D02*
X01326750D01*
Y00537100D01*
X01326822D01*
X01330396Y00537811D01*
X01333763Y00539206D01*
X01336793Y00541230D01*
X01339370Y00543807D01*
X01341395Y00546837D01*
X01342789Y00550204D01*
X01343500Y00553778D01*
Y00553850D01*
D02*
G37*
G36*
X01323250D02*
X01306500D01*
Y00553778D01*
X01307211Y00550204D01*
X01308605Y00546837D01*
X01310630Y00543807D01*
X01313207Y00541230D01*
X01316237Y00539206D01*
X01319604Y00537811D01*
X01323178Y00537100D01*
X01323250D01*
Y00553850D01*
D02*
G37*
G36*
X01065084Y00547450D02*
X01050750D01*
Y00533116D01*
X01055250D01*
X01057795Y00533451D01*
X01060167Y00534433D01*
X01062204Y00535996D01*
X01063767Y00538033D01*
X01064749Y00540405D01*
X01065084Y00542950D01*
Y00547450D01*
D02*
G37*
G36*
X01047250D02*
X01032916D01*
Y00542950D01*
X01033251Y00540405D01*
X01034233Y00538033D01*
X01035796Y00535996D01*
X01037833Y00534433D01*
X01040205Y00533451D01*
X01042750Y00533116D01*
X01047250D01*
Y00547450D01*
D02*
G37*
%LPD*%
D43*
X01341000Y00385000D02*
D03*
X01030000Y00702000D02*
D03*
X01341000D02*
D03*
D44*
X01030000Y00385000D02*
D03*
D45*
X01325000Y00516000D02*
D03*
Y00555600D02*
D03*
D46*
Y00595200D02*
D03*
D47*
X01049000Y00588800D02*
D03*
D48*
Y00549200D02*
D03*
D49*
X01208000Y00559000D02*
D03*
X01203000Y00547000D02*
D03*
X01168000Y00703000D02*
D03*
Y00694000D02*
D03*
X01189000Y00703000D02*
D03*
Y00694000D02*
D03*
X01217000Y00546000D02*
D03*
Y00559000D02*
D03*
X01104000Y00386000D02*
D03*
X01255000Y00460000D02*
D03*
X01265000Y00456000D02*
D03*
X01264000Y00446000D02*
D03*
X01244000Y00457000D02*
D03*
X01211000Y00588000D02*
D03*
X01214000Y00643000D02*
D03*
X01097000Y00694000D02*
D03*
X01239000Y00588000D02*
D03*
X01150000Y00363000D02*
D03*
X01216000Y00394000D02*
D03*
X01206000D02*
D03*
X01216000Y00384000D02*
D03*
X01206000D02*
D03*
X01151000Y00648000D02*
D03*
X01141000D02*
D03*
Y00658000D02*
D03*
X01151000D02*
D03*
D50*
X01181000Y00546500D02*
D03*
Y00701500D02*
D03*
D51*
X01259500Y00440000D02*
D03*
X01104500D02*
D03*
D52*
X01103250Y00444000D02*
Y00494950D01*
X01049000Y00549200D02*
X01103250Y00494950D01*
Y00444000D02*
X01104555Y00442695D01*
M02*
